<mxfile host="app.diagrams.net" modified="2024-04-30T02:13:49.377Z" agent="Mozilla/5.0 (Windows NT 10.0; Win64; x64) AppleWebKit/537.36 (KHTML, like Gecko) Chrome/124.0.0.0 Safari/537.36" etag="2hI_UkB_9oSMkIXFejs5" version="24.3.0" type="device">
  <diagram name="PÃ¡gina-1" id="iAZiaVb8zTNw_-JxMDui">
    <mxGraphModel dx="2100" dy="1166" grid="1" gridSize="10" guides="1" tooltips="1" connect="1" arrows="1" fold="1" page="1" pageScale="1" pageWidth="2000" pageHeight="2000" math="0" shadow="0">
      <root>
        <mxCell id="0" />
        <mxCell id="1" parent="0" />
        <mxCell id="_cORZaKfMAQBqJn0a-Gh-169" style="edgeStyle=orthogonalEdgeStyle;rounded=0;orthogonalLoop=1;jettySize=auto;html=1;entryX=0;entryY=0.5;entryDx=0;entryDy=0;" edge="1" parent="1" source="_cORZaKfMAQBqJn0a-Gh-12" target="_cORZaKfMAQBqJn0a-Gh-56">
          <mxGeometry relative="1" as="geometry" />
        </mxCell>
        <mxCell id="_cORZaKfMAQBqJn0a-Gh-12" value="" style="shape=table;startSize=0;container=1;collapsible=0;childLayout=tableLayout;align=center;fontStyle=1;fontSize=18;" vertex="1" parent="1">
          <mxGeometry x="230" y="200" width="180" height="120" as="geometry" />
        </mxCell>
        <mxCell id="_cORZaKfMAQBqJn0a-Gh-13" value="" style="shape=tableRow;horizontal=0;startSize=0;swimlaneHead=0;swimlaneBody=0;strokeColor=inherit;top=0;left=0;bottom=0;right=0;collapsible=0;dropTarget=0;fillColor=none;points=[[0,0.5],[1,0.5]];portConstraint=eastwest;" vertex="1" parent="_cORZaKfMAQBqJn0a-Gh-12">
          <mxGeometry width="180" height="40" as="geometry" />
        </mxCell>
        <mxCell id="_cORZaKfMAQBqJn0a-Gh-14" value="0" style="shape=partialRectangle;html=1;whiteSpace=wrap;connectable=0;strokeColor=inherit;overflow=hidden;fillColor=none;top=0;left=0;bottom=0;right=0;pointerEvents=1;fontSize=20;" vertex="1" parent="_cORZaKfMAQBqJn0a-Gh-13">
          <mxGeometry width="60" height="40" as="geometry">
            <mxRectangle width="60" height="40" as="alternateBounds" />
          </mxGeometry>
        </mxCell>
        <mxCell id="_cORZaKfMAQBqJn0a-Gh-15" value="" style="shape=partialRectangle;html=1;whiteSpace=wrap;connectable=0;strokeColor=inherit;overflow=hidden;fillColor=none;top=0;left=0;bottom=0;right=0;pointerEvents=1;fontSize=20;" vertex="1" parent="_cORZaKfMAQBqJn0a-Gh-13">
          <mxGeometry x="60" width="60" height="40" as="geometry">
            <mxRectangle width="60" height="40" as="alternateBounds" />
          </mxGeometry>
        </mxCell>
        <mxCell id="_cORZaKfMAQBqJn0a-Gh-16" value="&lt;font color=&quot;#67ab9f&quot;&gt;12&lt;/font&gt;" style="shape=partialRectangle;html=1;whiteSpace=wrap;connectable=0;strokeColor=inherit;overflow=hidden;fillColor=none;top=0;left=0;bottom=0;right=0;pointerEvents=1;fontSize=20;" vertex="1" parent="_cORZaKfMAQBqJn0a-Gh-13">
          <mxGeometry x="120" width="60" height="40" as="geometry">
            <mxRectangle width="60" height="40" as="alternateBounds" />
          </mxGeometry>
        </mxCell>
        <mxCell id="_cORZaKfMAQBqJn0a-Gh-17" value="" style="shape=tableRow;horizontal=0;startSize=0;swimlaneHead=0;swimlaneBody=0;strokeColor=inherit;top=0;left=0;bottom=0;right=0;collapsible=0;dropTarget=0;fillColor=none;points=[[0,0.5],[1,0.5]];portConstraint=eastwest;" vertex="1" parent="_cORZaKfMAQBqJn0a-Gh-12">
          <mxGeometry y="40" width="180" height="40" as="geometry" />
        </mxCell>
        <mxCell id="_cORZaKfMAQBqJn0a-Gh-18" value="" style="shape=partialRectangle;html=1;whiteSpace=wrap;connectable=0;strokeColor=inherit;overflow=hidden;fillColor=none;top=0;left=0;bottom=0;right=0;pointerEvents=1;fontSize=20;" vertex="1" parent="_cORZaKfMAQBqJn0a-Gh-17">
          <mxGeometry width="60" height="40" as="geometry">
            <mxRectangle width="60" height="40" as="alternateBounds" />
          </mxGeometry>
        </mxCell>
        <mxCell id="_cORZaKfMAQBqJn0a-Gh-19" value="&lt;font style=&quot;font-size: 20px;&quot;&gt;1&lt;/font&gt;" style="shape=partialRectangle;html=1;whiteSpace=wrap;connectable=0;strokeColor=inherit;overflow=hidden;fillColor=none;top=0;left=0;bottom=0;right=0;pointerEvents=1;fontSize=20;" vertex="1" parent="_cORZaKfMAQBqJn0a-Gh-17">
          <mxGeometry x="60" width="60" height="40" as="geometry">
            <mxRectangle width="60" height="40" as="alternateBounds" />
          </mxGeometry>
        </mxCell>
        <mxCell id="_cORZaKfMAQBqJn0a-Gh-20" value="" style="shape=partialRectangle;html=1;whiteSpace=wrap;connectable=0;strokeColor=inherit;overflow=hidden;fillColor=none;top=0;left=0;bottom=0;right=0;pointerEvents=1;fontSize=20;" vertex="1" parent="_cORZaKfMAQBqJn0a-Gh-17">
          <mxGeometry x="120" width="60" height="40" as="geometry">
            <mxRectangle width="60" height="40" as="alternateBounds" />
          </mxGeometry>
        </mxCell>
        <mxCell id="_cORZaKfMAQBqJn0a-Gh-21" value="" style="shape=tableRow;horizontal=0;startSize=0;swimlaneHead=0;swimlaneBody=0;strokeColor=inherit;top=0;left=0;bottom=0;right=0;collapsible=0;dropTarget=0;fillColor=none;points=[[0,0.5],[1,0.5]];portConstraint=eastwest;" vertex="1" parent="_cORZaKfMAQBqJn0a-Gh-12">
          <mxGeometry y="80" width="180" height="40" as="geometry" />
        </mxCell>
        <mxCell id="_cORZaKfMAQBqJn0a-Gh-22" value="" style="shape=partialRectangle;html=1;whiteSpace=wrap;connectable=0;strokeColor=inherit;overflow=hidden;fillColor=none;top=0;left=0;bottom=0;right=0;pointerEvents=1;fontSize=20;" vertex="1" parent="_cORZaKfMAQBqJn0a-Gh-21">
          <mxGeometry width="60" height="40" as="geometry">
            <mxRectangle width="60" height="40" as="alternateBounds" />
          </mxGeometry>
        </mxCell>
        <mxCell id="_cORZaKfMAQBqJn0a-Gh-23" value="12" style="shape=partialRectangle;html=1;whiteSpace=wrap;connectable=0;strokeColor=inherit;overflow=hidden;fillColor=none;top=0;left=0;bottom=0;right=0;pointerEvents=1;fontSize=20;" vertex="1" parent="_cORZaKfMAQBqJn0a-Gh-21">
          <mxGeometry x="60" width="60" height="40" as="geometry">
            <mxRectangle width="60" height="40" as="alternateBounds" />
          </mxGeometry>
        </mxCell>
        <mxCell id="_cORZaKfMAQBqJn0a-Gh-24" value="" style="shape=partialRectangle;html=1;whiteSpace=wrap;connectable=0;strokeColor=inherit;overflow=hidden;fillColor=none;top=0;left=0;bottom=0;right=0;pointerEvents=1;fontSize=20;" vertex="1" parent="_cORZaKfMAQBqJn0a-Gh-21">
          <mxGeometry x="120" width="60" height="40" as="geometry">
            <mxRectangle width="60" height="40" as="alternateBounds" />
          </mxGeometry>
        </mxCell>
        <mxCell id="_cORZaKfMAQBqJn0a-Gh-25" value="" style="shape=table;startSize=0;container=1;collapsible=0;childLayout=tableLayout;align=center;fontStyle=1;fontSize=18;" vertex="1" parent="1">
          <mxGeometry x="230" y="520" width="180" height="120" as="geometry" />
        </mxCell>
        <mxCell id="_cORZaKfMAQBqJn0a-Gh-26" value="" style="shape=tableRow;horizontal=0;startSize=0;swimlaneHead=0;swimlaneBody=0;strokeColor=inherit;top=0;left=0;bottom=0;right=0;collapsible=0;dropTarget=0;fillColor=none;points=[[0,0.5],[1,0.5]];portConstraint=eastwest;" vertex="1" parent="_cORZaKfMAQBqJn0a-Gh-25">
          <mxGeometry width="180" height="40" as="geometry" />
        </mxCell>
        <mxCell id="_cORZaKfMAQBqJn0a-Gh-27" value="0" style="shape=partialRectangle;html=1;whiteSpace=wrap;connectable=0;strokeColor=inherit;overflow=hidden;fillColor=none;top=0;left=0;bottom=0;right=0;pointerEvents=1;fontSize=20;" vertex="1" parent="_cORZaKfMAQBqJn0a-Gh-26">
          <mxGeometry width="60" height="40" as="geometry">
            <mxRectangle width="60" height="40" as="alternateBounds" />
          </mxGeometry>
        </mxCell>
        <mxCell id="_cORZaKfMAQBqJn0a-Gh-28" value="" style="shape=partialRectangle;html=1;whiteSpace=wrap;connectable=0;strokeColor=inherit;overflow=hidden;fillColor=none;top=0;left=0;bottom=0;right=0;pointerEvents=1;fontSize=20;" vertex="1" parent="_cORZaKfMAQBqJn0a-Gh-26">
          <mxGeometry x="60" width="60" height="40" as="geometry">
            <mxRectangle width="60" height="40" as="alternateBounds" />
          </mxGeometry>
        </mxCell>
        <mxCell id="_cORZaKfMAQBqJn0a-Gh-29" value="9" style="shape=partialRectangle;html=1;whiteSpace=wrap;connectable=0;strokeColor=inherit;overflow=hidden;fillColor=none;top=0;left=0;bottom=0;right=0;pointerEvents=1;fontSize=20;fontColor=#67AB9F;" vertex="1" parent="_cORZaKfMAQBqJn0a-Gh-26">
          <mxGeometry x="120" width="60" height="40" as="geometry">
            <mxRectangle width="60" height="40" as="alternateBounds" />
          </mxGeometry>
        </mxCell>
        <mxCell id="_cORZaKfMAQBqJn0a-Gh-30" value="" style="shape=tableRow;horizontal=0;startSize=0;swimlaneHead=0;swimlaneBody=0;strokeColor=inherit;top=0;left=0;bottom=0;right=0;collapsible=0;dropTarget=0;fillColor=none;points=[[0,0.5],[1,0.5]];portConstraint=eastwest;" vertex="1" parent="_cORZaKfMAQBqJn0a-Gh-25">
          <mxGeometry y="40" width="180" height="40" as="geometry" />
        </mxCell>
        <mxCell id="_cORZaKfMAQBqJn0a-Gh-31" value="" style="shape=partialRectangle;html=1;whiteSpace=wrap;connectable=0;strokeColor=inherit;overflow=hidden;fillColor=none;top=0;left=0;bottom=0;right=0;pointerEvents=1;fontSize=20;" vertex="1" parent="_cORZaKfMAQBqJn0a-Gh-30">
          <mxGeometry width="60" height="40" as="geometry">
            <mxRectangle width="60" height="40" as="alternateBounds" />
          </mxGeometry>
        </mxCell>
        <mxCell id="_cORZaKfMAQBqJn0a-Gh-32" value="&lt;font style=&quot;font-size: 20px;&quot;&gt;2&lt;/font&gt;" style="shape=partialRectangle;html=1;whiteSpace=wrap;connectable=0;strokeColor=inherit;overflow=hidden;fillColor=none;top=0;left=0;bottom=0;right=0;pointerEvents=1;fontSize=20;" vertex="1" parent="_cORZaKfMAQBqJn0a-Gh-30">
          <mxGeometry x="60" width="60" height="40" as="geometry">
            <mxRectangle width="60" height="40" as="alternateBounds" />
          </mxGeometry>
        </mxCell>
        <mxCell id="_cORZaKfMAQBqJn0a-Gh-33" value="" style="shape=partialRectangle;html=1;whiteSpace=wrap;connectable=0;strokeColor=inherit;overflow=hidden;fillColor=none;top=0;left=0;bottom=0;right=0;pointerEvents=1;fontSize=20;" vertex="1" parent="_cORZaKfMAQBqJn0a-Gh-30">
          <mxGeometry x="120" width="60" height="40" as="geometry">
            <mxRectangle width="60" height="40" as="alternateBounds" />
          </mxGeometry>
        </mxCell>
        <mxCell id="_cORZaKfMAQBqJn0a-Gh-34" value="" style="shape=tableRow;horizontal=0;startSize=0;swimlaneHead=0;swimlaneBody=0;strokeColor=inherit;top=0;left=0;bottom=0;right=0;collapsible=0;dropTarget=0;fillColor=none;points=[[0,0.5],[1,0.5]];portConstraint=eastwest;" vertex="1" parent="_cORZaKfMAQBqJn0a-Gh-25">
          <mxGeometry y="80" width="180" height="40" as="geometry" />
        </mxCell>
        <mxCell id="_cORZaKfMAQBqJn0a-Gh-35" value="" style="shape=partialRectangle;html=1;whiteSpace=wrap;connectable=0;strokeColor=inherit;overflow=hidden;fillColor=none;top=0;left=0;bottom=0;right=0;pointerEvents=1;fontSize=20;" vertex="1" parent="_cORZaKfMAQBqJn0a-Gh-34">
          <mxGeometry width="60" height="40" as="geometry">
            <mxRectangle width="60" height="40" as="alternateBounds" />
          </mxGeometry>
        </mxCell>
        <mxCell id="_cORZaKfMAQBqJn0a-Gh-36" value="9" style="shape=partialRectangle;html=1;whiteSpace=wrap;connectable=0;strokeColor=inherit;overflow=hidden;fillColor=none;top=0;left=0;bottom=0;right=0;pointerEvents=1;fontSize=20;" vertex="1" parent="_cORZaKfMAQBqJn0a-Gh-34">
          <mxGeometry x="60" width="60" height="40" as="geometry">
            <mxRectangle width="60" height="40" as="alternateBounds" />
          </mxGeometry>
        </mxCell>
        <mxCell id="_cORZaKfMAQBqJn0a-Gh-37" value="" style="shape=partialRectangle;html=1;whiteSpace=wrap;connectable=0;strokeColor=inherit;overflow=hidden;fillColor=none;top=0;left=0;bottom=0;right=0;pointerEvents=1;fontSize=20;" vertex="1" parent="_cORZaKfMAQBqJn0a-Gh-34">
          <mxGeometry x="120" width="60" height="40" as="geometry">
            <mxRectangle width="60" height="40" as="alternateBounds" />
          </mxGeometry>
        </mxCell>
        <mxCell id="_cORZaKfMAQBqJn0a-Gh-38" value="" style="shape=table;startSize=0;container=1;collapsible=0;childLayout=tableLayout;align=center;fontStyle=1;fontSize=18;" vertex="1" parent="1">
          <mxGeometry x="560" y="50" width="180" height="120" as="geometry" />
        </mxCell>
        <mxCell id="_cORZaKfMAQBqJn0a-Gh-39" value="" style="shape=tableRow;horizontal=0;startSize=0;swimlaneHead=0;swimlaneBody=0;strokeColor=inherit;top=0;left=0;bottom=0;right=0;collapsible=0;dropTarget=0;fillColor=none;points=[[0,0.5],[1,0.5]];portConstraint=eastwest;" vertex="1" parent="_cORZaKfMAQBqJn0a-Gh-38">
          <mxGeometry width="180" height="40" as="geometry" />
        </mxCell>
        <mxCell id="_cORZaKfMAQBqJn0a-Gh-40" value="12" style="shape=partialRectangle;html=1;whiteSpace=wrap;connectable=0;strokeColor=inherit;overflow=hidden;fillColor=none;top=0;left=0;bottom=0;right=0;pointerEvents=1;fontSize=20;fontColor=#67AB9F;" vertex="1" parent="_cORZaKfMAQBqJn0a-Gh-39">
          <mxGeometry width="60" height="40" as="geometry">
            <mxRectangle width="60" height="40" as="alternateBounds" />
          </mxGeometry>
        </mxCell>
        <mxCell id="_cORZaKfMAQBqJn0a-Gh-41" value="" style="shape=partialRectangle;html=1;whiteSpace=wrap;connectable=0;strokeColor=inherit;overflow=hidden;fillColor=none;top=0;left=0;bottom=0;right=0;pointerEvents=1;fontSize=20;" vertex="1" parent="_cORZaKfMAQBqJn0a-Gh-39">
          <mxGeometry x="60" width="60" height="40" as="geometry">
            <mxRectangle width="60" height="40" as="alternateBounds" />
          </mxGeometry>
        </mxCell>
        <mxCell id="_cORZaKfMAQBqJn0a-Gh-42" value="27" style="shape=partialRectangle;html=1;whiteSpace=wrap;connectable=0;strokeColor=inherit;overflow=hidden;fillColor=none;top=0;left=0;bottom=0;right=0;pointerEvents=1;fontSize=20;fontColor=#4D82FF;" vertex="1" parent="_cORZaKfMAQBqJn0a-Gh-39">
          <mxGeometry x="120" width="60" height="40" as="geometry">
            <mxRectangle width="60" height="40" as="alternateBounds" />
          </mxGeometry>
        </mxCell>
        <mxCell id="_cORZaKfMAQBqJn0a-Gh-43" value="" style="shape=tableRow;horizontal=0;startSize=0;swimlaneHead=0;swimlaneBody=0;strokeColor=inherit;top=0;left=0;bottom=0;right=0;collapsible=0;dropTarget=0;fillColor=none;points=[[0,0.5],[1,0.5]];portConstraint=eastwest;" vertex="1" parent="_cORZaKfMAQBqJn0a-Gh-38">
          <mxGeometry y="40" width="180" height="40" as="geometry" />
        </mxCell>
        <mxCell id="_cORZaKfMAQBqJn0a-Gh-44" value="" style="shape=partialRectangle;html=1;whiteSpace=wrap;connectable=0;strokeColor=inherit;overflow=hidden;fillColor=none;top=0;left=0;bottom=0;right=0;pointerEvents=1;fontSize=20;" vertex="1" parent="_cORZaKfMAQBqJn0a-Gh-43">
          <mxGeometry width="60" height="40" as="geometry">
            <mxRectangle width="60" height="40" as="alternateBounds" />
          </mxGeometry>
        </mxCell>
        <mxCell id="_cORZaKfMAQBqJn0a-Gh-45" value="&lt;font style=&quot;font-size: 20px;&quot;&gt;9&lt;/font&gt;&lt;div style=&quot;font-size: 20px;&quot;&gt;&lt;font style=&quot;font-size: 20px;&quot;&gt;&lt;br style=&quot;font-size: 20px;&quot;&gt;&lt;/font&gt;&lt;/div&gt;" style="shape=partialRectangle;html=1;whiteSpace=wrap;connectable=0;strokeColor=inherit;overflow=hidden;fillColor=none;top=0;left=0;bottom=0;right=0;pointerEvents=1;fontSize=20;" vertex="1" parent="_cORZaKfMAQBqJn0a-Gh-43">
          <mxGeometry x="60" width="60" height="40" as="geometry">
            <mxRectangle width="60" height="40" as="alternateBounds" />
          </mxGeometry>
        </mxCell>
        <mxCell id="_cORZaKfMAQBqJn0a-Gh-46" value="" style="shape=partialRectangle;html=1;whiteSpace=wrap;connectable=0;strokeColor=inherit;overflow=hidden;fillColor=none;top=0;left=0;bottom=0;right=0;pointerEvents=1;fontSize=20;" vertex="1" parent="_cORZaKfMAQBqJn0a-Gh-43">
          <mxGeometry x="120" width="60" height="40" as="geometry">
            <mxRectangle width="60" height="40" as="alternateBounds" />
          </mxGeometry>
        </mxCell>
        <mxCell id="_cORZaKfMAQBqJn0a-Gh-47" value="" style="shape=tableRow;horizontal=0;startSize=0;swimlaneHead=0;swimlaneBody=0;strokeColor=inherit;top=0;left=0;bottom=0;right=0;collapsible=0;dropTarget=0;fillColor=none;points=[[0,0.5],[1,0.5]];portConstraint=eastwest;" vertex="1" parent="_cORZaKfMAQBqJn0a-Gh-38">
          <mxGeometry y="80" width="180" height="40" as="geometry" />
        </mxCell>
        <mxCell id="_cORZaKfMAQBqJn0a-Gh-48" value="" style="shape=partialRectangle;html=1;whiteSpace=wrap;connectable=0;strokeColor=inherit;overflow=hidden;fillColor=none;top=0;left=0;bottom=0;right=0;pointerEvents=1;fontSize=20;" vertex="1" parent="_cORZaKfMAQBqJn0a-Gh-47">
          <mxGeometry width="60" height="40" as="geometry">
            <mxRectangle width="60" height="40" as="alternateBounds" />
          </mxGeometry>
        </mxCell>
        <mxCell id="_cORZaKfMAQBqJn0a-Gh-49" value="15" style="shape=partialRectangle;html=1;whiteSpace=wrap;connectable=0;strokeColor=inherit;overflow=hidden;fillColor=none;top=0;left=0;bottom=0;right=0;pointerEvents=1;fontSize=20;" vertex="1" parent="_cORZaKfMAQBqJn0a-Gh-47">
          <mxGeometry x="60" width="60" height="40" as="geometry">
            <mxRectangle width="60" height="40" as="alternateBounds" />
          </mxGeometry>
        </mxCell>
        <mxCell id="_cORZaKfMAQBqJn0a-Gh-50" value="" style="shape=partialRectangle;html=1;whiteSpace=wrap;connectable=0;strokeColor=inherit;overflow=hidden;fillColor=none;top=0;left=0;bottom=0;right=0;pointerEvents=1;fontSize=20;" vertex="1" parent="_cORZaKfMAQBqJn0a-Gh-47">
          <mxGeometry x="120" width="60" height="40" as="geometry">
            <mxRectangle width="60" height="40" as="alternateBounds" />
          </mxGeometry>
        </mxCell>
        <mxCell id="_cORZaKfMAQBqJn0a-Gh-51" value="" style="shape=table;startSize=0;container=1;collapsible=0;childLayout=tableLayout;align=center;fontStyle=1;fontSize=18;fontColor=#67AB9F;" vertex="1" parent="1">
          <mxGeometry x="560" y="200" width="180" height="120" as="geometry" />
        </mxCell>
        <mxCell id="_cORZaKfMAQBqJn0a-Gh-52" value="" style="shape=tableRow;horizontal=0;startSize=0;swimlaneHead=0;swimlaneBody=0;strokeColor=inherit;top=0;left=0;bottom=0;right=0;collapsible=0;dropTarget=0;fillColor=none;points=[[0,0.5],[1,0.5]];portConstraint=eastwest;" vertex="1" parent="_cORZaKfMAQBqJn0a-Gh-51">
          <mxGeometry width="180" height="40" as="geometry" />
        </mxCell>
        <mxCell id="_cORZaKfMAQBqJn0a-Gh-53" value="12" style="shape=partialRectangle;html=1;whiteSpace=wrap;connectable=0;strokeColor=inherit;overflow=hidden;fillColor=none;top=0;left=0;bottom=0;right=0;pointerEvents=1;fontSize=20;fontColor=#67AB9F;" vertex="1" parent="_cORZaKfMAQBqJn0a-Gh-52">
          <mxGeometry width="60" height="40" as="geometry">
            <mxRectangle width="60" height="40" as="alternateBounds" />
          </mxGeometry>
        </mxCell>
        <mxCell id="_cORZaKfMAQBqJn0a-Gh-54" value="" style="shape=partialRectangle;html=1;whiteSpace=wrap;connectable=0;strokeColor=inherit;overflow=hidden;fillColor=none;top=0;left=0;bottom=0;right=0;pointerEvents=1;fontSize=20;" vertex="1" parent="_cORZaKfMAQBqJn0a-Gh-52">
          <mxGeometry x="60" width="60" height="40" as="geometry">
            <mxRectangle width="60" height="40" as="alternateBounds" />
          </mxGeometry>
        </mxCell>
        <mxCell id="_cORZaKfMAQBqJn0a-Gh-55" value="22" style="shape=partialRectangle;html=1;whiteSpace=wrap;connectable=0;strokeColor=inherit;overflow=hidden;fillColor=none;top=0;left=0;bottom=0;right=0;pointerEvents=1;fontSize=20;fontColor=#4D82FF;" vertex="1" parent="_cORZaKfMAQBqJn0a-Gh-52">
          <mxGeometry x="120" width="60" height="40" as="geometry">
            <mxRectangle width="60" height="40" as="alternateBounds" />
          </mxGeometry>
        </mxCell>
        <mxCell id="_cORZaKfMAQBqJn0a-Gh-56" value="" style="shape=tableRow;horizontal=0;startSize=0;swimlaneHead=0;swimlaneBody=0;strokeColor=inherit;top=0;left=0;bottom=0;right=0;collapsible=0;dropTarget=0;fillColor=none;points=[[0,0.5],[1,0.5]];portConstraint=eastwest;" vertex="1" parent="_cORZaKfMAQBqJn0a-Gh-51">
          <mxGeometry y="40" width="180" height="40" as="geometry" />
        </mxCell>
        <mxCell id="_cORZaKfMAQBqJn0a-Gh-57" value="" style="shape=partialRectangle;html=1;whiteSpace=wrap;connectable=0;strokeColor=inherit;overflow=hidden;fillColor=none;top=0;left=0;bottom=0;right=0;pointerEvents=1;fontSize=20;" vertex="1" parent="_cORZaKfMAQBqJn0a-Gh-56">
          <mxGeometry width="60" height="40" as="geometry">
            <mxRectangle width="60" height="40" as="alternateBounds" />
          </mxGeometry>
        </mxCell>
        <mxCell id="_cORZaKfMAQBqJn0a-Gh-58" value="&lt;font style=&quot;font-size: 20px;&quot;&gt;6&lt;/font&gt;" style="shape=partialRectangle;html=1;whiteSpace=wrap;connectable=0;strokeColor=inherit;overflow=hidden;fillColor=none;top=0;left=0;bottom=0;right=0;pointerEvents=1;fontSize=20;" vertex="1" parent="_cORZaKfMAQBqJn0a-Gh-56">
          <mxGeometry x="60" width="60" height="40" as="geometry">
            <mxRectangle width="60" height="40" as="alternateBounds" />
          </mxGeometry>
        </mxCell>
        <mxCell id="_cORZaKfMAQBqJn0a-Gh-59" value="" style="shape=partialRectangle;html=1;whiteSpace=wrap;connectable=0;strokeColor=inherit;overflow=hidden;fillColor=none;top=0;left=0;bottom=0;right=0;pointerEvents=1;fontSize=20;" vertex="1" parent="_cORZaKfMAQBqJn0a-Gh-56">
          <mxGeometry x="120" width="60" height="40" as="geometry">
            <mxRectangle width="60" height="40" as="alternateBounds" />
          </mxGeometry>
        </mxCell>
        <mxCell id="_cORZaKfMAQBqJn0a-Gh-60" value="" style="shape=tableRow;horizontal=0;startSize=0;swimlaneHead=0;swimlaneBody=0;strokeColor=inherit;top=0;left=0;bottom=0;right=0;collapsible=0;dropTarget=0;fillColor=none;points=[[0,0.5],[1,0.5]];portConstraint=eastwest;" vertex="1" parent="_cORZaKfMAQBqJn0a-Gh-51">
          <mxGeometry y="80" width="180" height="40" as="geometry" />
        </mxCell>
        <mxCell id="_cORZaKfMAQBqJn0a-Gh-61" value="" style="shape=partialRectangle;html=1;whiteSpace=wrap;connectable=0;strokeColor=inherit;overflow=hidden;fillColor=none;top=0;left=0;bottom=0;right=0;pointerEvents=1;fontSize=20;" vertex="1" parent="_cORZaKfMAQBqJn0a-Gh-60">
          <mxGeometry width="60" height="40" as="geometry">
            <mxRectangle width="60" height="40" as="alternateBounds" />
          </mxGeometry>
        </mxCell>
        <mxCell id="_cORZaKfMAQBqJn0a-Gh-62" value="10" style="shape=partialRectangle;html=1;whiteSpace=wrap;connectable=0;strokeColor=inherit;overflow=hidden;fillColor=none;top=0;left=0;bottom=0;right=0;pointerEvents=1;fontSize=20;" vertex="1" parent="_cORZaKfMAQBqJn0a-Gh-60">
          <mxGeometry x="60" width="60" height="40" as="geometry">
            <mxRectangle width="60" height="40" as="alternateBounds" />
          </mxGeometry>
        </mxCell>
        <mxCell id="_cORZaKfMAQBqJn0a-Gh-63" value="" style="shape=partialRectangle;html=1;whiteSpace=wrap;connectable=0;strokeColor=inherit;overflow=hidden;fillColor=none;top=0;left=0;bottom=0;right=0;pointerEvents=1;fontSize=20;" vertex="1" parent="_cORZaKfMAQBqJn0a-Gh-60">
          <mxGeometry x="120" width="60" height="40" as="geometry">
            <mxRectangle width="60" height="40" as="alternateBounds" />
          </mxGeometry>
        </mxCell>
        <mxCell id="_cORZaKfMAQBqJn0a-Gh-64" value="" style="shape=table;startSize=0;container=1;collapsible=0;childLayout=tableLayout;align=center;fontStyle=1;fontSize=18;" vertex="1" parent="1">
          <mxGeometry x="560" y="360" width="180" height="120" as="geometry" />
        </mxCell>
        <mxCell id="_cORZaKfMAQBqJn0a-Gh-65" value="" style="shape=tableRow;horizontal=0;startSize=0;swimlaneHead=0;swimlaneBody=0;strokeColor=inherit;top=0;left=0;bottom=0;right=0;collapsible=0;dropTarget=0;fillColor=none;points=[[0,0.5],[1,0.5]];portConstraint=eastwest;" vertex="1" parent="_cORZaKfMAQBqJn0a-Gh-64">
          <mxGeometry width="180" height="40" as="geometry" />
        </mxCell>
        <mxCell id="_cORZaKfMAQBqJn0a-Gh-66" value="&lt;font color=&quot;#67ab9f&quot;&gt;12&lt;/font&gt;" style="shape=partialRectangle;html=1;whiteSpace=wrap;connectable=0;strokeColor=inherit;overflow=hidden;fillColor=none;top=0;left=0;bottom=0;right=0;pointerEvents=1;fontSize=20;" vertex="1" parent="_cORZaKfMAQBqJn0a-Gh-65">
          <mxGeometry width="60" height="40" as="geometry">
            <mxRectangle width="60" height="40" as="alternateBounds" />
          </mxGeometry>
        </mxCell>
        <mxCell id="_cORZaKfMAQBqJn0a-Gh-67" value="" style="shape=partialRectangle;html=1;whiteSpace=wrap;connectable=0;strokeColor=inherit;overflow=hidden;fillColor=none;top=0;left=0;bottom=0;right=0;pointerEvents=1;fontSize=20;" vertex="1" parent="_cORZaKfMAQBqJn0a-Gh-65">
          <mxGeometry x="60" width="60" height="40" as="geometry">
            <mxRectangle width="60" height="40" as="alternateBounds" />
          </mxGeometry>
        </mxCell>
        <mxCell id="_cORZaKfMAQBqJn0a-Gh-68" value="22" style="shape=partialRectangle;html=1;whiteSpace=wrap;connectable=0;strokeColor=inherit;overflow=hidden;fillColor=none;top=0;left=0;bottom=0;right=0;pointerEvents=1;fontSize=20;fontColor=#4D82FF;" vertex="1" parent="_cORZaKfMAQBqJn0a-Gh-65">
          <mxGeometry x="120" width="60" height="40" as="geometry">
            <mxRectangle width="60" height="40" as="alternateBounds" />
          </mxGeometry>
        </mxCell>
        <mxCell id="_cORZaKfMAQBqJn0a-Gh-69" value="" style="shape=tableRow;horizontal=0;startSize=0;swimlaneHead=0;swimlaneBody=0;strokeColor=inherit;top=0;left=0;bottom=0;right=0;collapsible=0;dropTarget=0;fillColor=none;points=[[0,0.5],[1,0.5]];portConstraint=eastwest;" vertex="1" parent="_cORZaKfMAQBqJn0a-Gh-64">
          <mxGeometry y="40" width="180" height="40" as="geometry" />
        </mxCell>
        <mxCell id="_cORZaKfMAQBqJn0a-Gh-70" value="" style="shape=partialRectangle;html=1;whiteSpace=wrap;connectable=0;strokeColor=inherit;overflow=hidden;fillColor=none;top=0;left=0;bottom=0;right=0;pointerEvents=1;fontSize=20;" vertex="1" parent="_cORZaKfMAQBqJn0a-Gh-69">
          <mxGeometry width="60" height="40" as="geometry">
            <mxRectangle width="60" height="40" as="alternateBounds" />
          </mxGeometry>
        </mxCell>
        <mxCell id="_cORZaKfMAQBqJn0a-Gh-71" value="&lt;font style=&quot;font-size: 20px;&quot;&gt;3&lt;/font&gt;" style="shape=partialRectangle;html=1;whiteSpace=wrap;connectable=0;strokeColor=inherit;overflow=hidden;fillColor=none;top=0;left=0;bottom=0;right=0;pointerEvents=1;fontSize=20;" vertex="1" parent="_cORZaKfMAQBqJn0a-Gh-69">
          <mxGeometry x="60" width="60" height="40" as="geometry">
            <mxRectangle width="60" height="40" as="alternateBounds" />
          </mxGeometry>
        </mxCell>
        <mxCell id="_cORZaKfMAQBqJn0a-Gh-72" value="" style="shape=partialRectangle;html=1;whiteSpace=wrap;connectable=0;strokeColor=inherit;overflow=hidden;fillColor=none;top=0;left=0;bottom=0;right=0;pointerEvents=1;fontSize=20;" vertex="1" parent="_cORZaKfMAQBqJn0a-Gh-69">
          <mxGeometry x="120" width="60" height="40" as="geometry">
            <mxRectangle width="60" height="40" as="alternateBounds" />
          </mxGeometry>
        </mxCell>
        <mxCell id="_cORZaKfMAQBqJn0a-Gh-73" value="" style="shape=tableRow;horizontal=0;startSize=0;swimlaneHead=0;swimlaneBody=0;strokeColor=inherit;top=0;left=0;bottom=0;right=0;collapsible=0;dropTarget=0;fillColor=none;points=[[0,0.5],[1,0.5]];portConstraint=eastwest;" vertex="1" parent="_cORZaKfMAQBqJn0a-Gh-64">
          <mxGeometry y="80" width="180" height="40" as="geometry" />
        </mxCell>
        <mxCell id="_cORZaKfMAQBqJn0a-Gh-74" value="" style="shape=partialRectangle;html=1;whiteSpace=wrap;connectable=0;strokeColor=inherit;overflow=hidden;fillColor=none;top=0;left=0;bottom=0;right=0;pointerEvents=1;fontSize=20;" vertex="1" parent="_cORZaKfMAQBqJn0a-Gh-73">
          <mxGeometry width="60" height="40" as="geometry">
            <mxRectangle width="60" height="40" as="alternateBounds" />
          </mxGeometry>
        </mxCell>
        <mxCell id="_cORZaKfMAQBqJn0a-Gh-75" value="10" style="shape=partialRectangle;html=1;whiteSpace=wrap;connectable=0;strokeColor=inherit;overflow=hidden;fillColor=none;top=0;left=0;bottom=0;right=0;pointerEvents=1;fontSize=20;" vertex="1" parent="_cORZaKfMAQBqJn0a-Gh-73">
          <mxGeometry x="60" width="60" height="40" as="geometry">
            <mxRectangle width="60" height="40" as="alternateBounds" />
          </mxGeometry>
        </mxCell>
        <mxCell id="_cORZaKfMAQBqJn0a-Gh-76" value="" style="shape=partialRectangle;html=1;whiteSpace=wrap;connectable=0;strokeColor=inherit;overflow=hidden;fillColor=none;top=0;left=0;bottom=0;right=0;pointerEvents=1;fontSize=20;" vertex="1" parent="_cORZaKfMAQBqJn0a-Gh-73">
          <mxGeometry x="120" width="60" height="40" as="geometry">
            <mxRectangle width="60" height="40" as="alternateBounds" />
          </mxGeometry>
        </mxCell>
        <mxCell id="_cORZaKfMAQBqJn0a-Gh-77" value="" style="shape=table;startSize=0;container=1;collapsible=0;childLayout=tableLayout;align=center;fontStyle=1;fontSize=18;" vertex="1" parent="1">
          <mxGeometry x="560" y="520" width="180" height="120" as="geometry" />
        </mxCell>
        <mxCell id="_cORZaKfMAQBqJn0a-Gh-78" value="" style="shape=tableRow;horizontal=0;startSize=0;swimlaneHead=0;swimlaneBody=0;strokeColor=inherit;top=0;left=0;bottom=0;right=0;collapsible=0;dropTarget=0;fillColor=none;points=[[0,0.5],[1,0.5]];portConstraint=eastwest;" vertex="1" parent="_cORZaKfMAQBqJn0a-Gh-77">
          <mxGeometry width="180" height="40" as="geometry" />
        </mxCell>
        <mxCell id="_cORZaKfMAQBqJn0a-Gh-79" value="9" style="shape=partialRectangle;html=1;whiteSpace=wrap;connectable=0;strokeColor=inherit;overflow=hidden;fillColor=none;top=0;left=0;bottom=0;right=0;pointerEvents=1;fontSize=20;fontColor=#67AB9F;" vertex="1" parent="_cORZaKfMAQBqJn0a-Gh-78">
          <mxGeometry width="60" height="40" as="geometry">
            <mxRectangle width="60" height="40" as="alternateBounds" />
          </mxGeometry>
        </mxCell>
        <mxCell id="_cORZaKfMAQBqJn0a-Gh-80" value="" style="shape=partialRectangle;html=1;whiteSpace=wrap;connectable=0;strokeColor=inherit;overflow=hidden;fillColor=none;top=0;left=0;bottom=0;right=0;pointerEvents=1;fontSize=20;" vertex="1" parent="_cORZaKfMAQBqJn0a-Gh-78">
          <mxGeometry x="60" width="60" height="40" as="geometry">
            <mxRectangle width="60" height="40" as="alternateBounds" />
          </mxGeometry>
        </mxCell>
        <mxCell id="_cORZaKfMAQBqJn0a-Gh-81" value="19" style="shape=partialRectangle;html=1;whiteSpace=wrap;connectable=0;strokeColor=inherit;overflow=hidden;fillColor=none;top=0;left=0;bottom=0;right=0;pointerEvents=1;fontSize=20;fontColor=#4D82FF;" vertex="1" parent="_cORZaKfMAQBqJn0a-Gh-78">
          <mxGeometry x="120" width="60" height="40" as="geometry">
            <mxRectangle width="60" height="40" as="alternateBounds" />
          </mxGeometry>
        </mxCell>
        <mxCell id="_cORZaKfMAQBqJn0a-Gh-82" value="" style="shape=tableRow;horizontal=0;startSize=0;swimlaneHead=0;swimlaneBody=0;strokeColor=inherit;top=0;left=0;bottom=0;right=0;collapsible=0;dropTarget=0;fillColor=none;points=[[0,0.5],[1,0.5]];portConstraint=eastwest;" vertex="1" parent="_cORZaKfMAQBqJn0a-Gh-77">
          <mxGeometry y="40" width="180" height="40" as="geometry" />
        </mxCell>
        <mxCell id="_cORZaKfMAQBqJn0a-Gh-83" value="" style="shape=partialRectangle;html=1;whiteSpace=wrap;connectable=0;strokeColor=inherit;overflow=hidden;fillColor=none;top=0;left=0;bottom=0;right=0;pointerEvents=1;fontSize=20;" vertex="1" parent="_cORZaKfMAQBqJn0a-Gh-82">
          <mxGeometry width="60" height="40" as="geometry">
            <mxRectangle width="60" height="40" as="alternateBounds" />
          </mxGeometry>
        </mxCell>
        <mxCell id="_cORZaKfMAQBqJn0a-Gh-84" value="&lt;font style=&quot;font-size: 20px;&quot;&gt;4&lt;/font&gt;" style="shape=partialRectangle;html=1;whiteSpace=wrap;connectable=0;strokeColor=inherit;overflow=hidden;fillColor=none;top=0;left=0;bottom=0;right=0;pointerEvents=1;fontSize=20;" vertex="1" parent="_cORZaKfMAQBqJn0a-Gh-82">
          <mxGeometry x="60" width="60" height="40" as="geometry">
            <mxRectangle width="60" height="40" as="alternateBounds" />
          </mxGeometry>
        </mxCell>
        <mxCell id="_cORZaKfMAQBqJn0a-Gh-85" value="" style="shape=partialRectangle;html=1;whiteSpace=wrap;connectable=0;strokeColor=inherit;overflow=hidden;fillColor=none;top=0;left=0;bottom=0;right=0;pointerEvents=1;fontSize=20;" vertex="1" parent="_cORZaKfMAQBqJn0a-Gh-82">
          <mxGeometry x="120" width="60" height="40" as="geometry">
            <mxRectangle width="60" height="40" as="alternateBounds" />
          </mxGeometry>
        </mxCell>
        <mxCell id="_cORZaKfMAQBqJn0a-Gh-86" value="" style="shape=tableRow;horizontal=0;startSize=0;swimlaneHead=0;swimlaneBody=0;strokeColor=inherit;top=0;left=0;bottom=0;right=0;collapsible=0;dropTarget=0;fillColor=none;points=[[0,0.5],[1,0.5]];portConstraint=eastwest;" vertex="1" parent="_cORZaKfMAQBqJn0a-Gh-77">
          <mxGeometry y="80" width="180" height="40" as="geometry" />
        </mxCell>
        <mxCell id="_cORZaKfMAQBqJn0a-Gh-87" value="" style="shape=partialRectangle;html=1;whiteSpace=wrap;connectable=0;strokeColor=inherit;overflow=hidden;fillColor=none;top=0;left=0;bottom=0;right=0;pointerEvents=1;fontSize=20;" vertex="1" parent="_cORZaKfMAQBqJn0a-Gh-86">
          <mxGeometry width="60" height="40" as="geometry">
            <mxRectangle width="60" height="40" as="alternateBounds" />
          </mxGeometry>
        </mxCell>
        <mxCell id="_cORZaKfMAQBqJn0a-Gh-88" value="10" style="shape=partialRectangle;html=1;whiteSpace=wrap;connectable=0;strokeColor=inherit;overflow=hidden;fillColor=none;top=0;left=0;bottom=0;right=0;pointerEvents=1;fontSize=20;" vertex="1" parent="_cORZaKfMAQBqJn0a-Gh-86">
          <mxGeometry x="60" width="60" height="40" as="geometry">
            <mxRectangle width="60" height="40" as="alternateBounds" />
          </mxGeometry>
        </mxCell>
        <mxCell id="_cORZaKfMAQBqJn0a-Gh-89" value="" style="shape=partialRectangle;html=1;whiteSpace=wrap;connectable=0;strokeColor=inherit;overflow=hidden;fillColor=none;top=0;left=0;bottom=0;right=0;pointerEvents=1;fontSize=20;" vertex="1" parent="_cORZaKfMAQBqJn0a-Gh-86">
          <mxGeometry x="120" width="60" height="40" as="geometry">
            <mxRectangle width="60" height="40" as="alternateBounds" />
          </mxGeometry>
        </mxCell>
        <mxCell id="_cORZaKfMAQBqJn0a-Gh-90" value="" style="shape=table;startSize=0;container=1;collapsible=0;childLayout=tableLayout;align=center;fontStyle=1;fontSize=18;" vertex="1" parent="1">
          <mxGeometry x="560" y="680" width="180" height="120" as="geometry" />
        </mxCell>
        <mxCell id="_cORZaKfMAQBqJn0a-Gh-91" value="" style="shape=tableRow;horizontal=0;startSize=0;swimlaneHead=0;swimlaneBody=0;strokeColor=inherit;top=0;left=0;bottom=0;right=0;collapsible=0;dropTarget=0;fillColor=none;points=[[0,0.5],[1,0.5]];portConstraint=eastwest;" vertex="1" parent="_cORZaKfMAQBqJn0a-Gh-90">
          <mxGeometry width="180" height="40" as="geometry" />
        </mxCell>
        <mxCell id="_cORZaKfMAQBqJn0a-Gh-92" value="9" style="shape=partialRectangle;html=1;whiteSpace=wrap;connectable=0;strokeColor=inherit;overflow=hidden;fillColor=none;top=0;left=0;bottom=0;right=0;pointerEvents=1;fontSize=20;fontColor=#67AB9F;" vertex="1" parent="_cORZaKfMAQBqJn0a-Gh-91">
          <mxGeometry width="60" height="40" as="geometry">
            <mxRectangle width="60" height="40" as="alternateBounds" />
          </mxGeometry>
        </mxCell>
        <mxCell id="_cORZaKfMAQBqJn0a-Gh-93" value="" style="shape=partialRectangle;html=1;whiteSpace=wrap;connectable=0;strokeColor=inherit;overflow=hidden;fillColor=none;top=0;left=0;bottom=0;right=0;pointerEvents=1;fontSize=20;" vertex="1" parent="_cORZaKfMAQBqJn0a-Gh-91">
          <mxGeometry x="60" width="60" height="40" as="geometry">
            <mxRectangle width="60" height="40" as="alternateBounds" />
          </mxGeometry>
        </mxCell>
        <mxCell id="_cORZaKfMAQBqJn0a-Gh-94" value="33" style="shape=partialRectangle;html=1;whiteSpace=wrap;connectable=0;strokeColor=inherit;overflow=hidden;fillColor=none;top=0;left=0;bottom=0;right=0;pointerEvents=1;fontSize=20;fontColor=#4D82FF;" vertex="1" parent="_cORZaKfMAQBqJn0a-Gh-91">
          <mxGeometry x="120" width="60" height="40" as="geometry">
            <mxRectangle width="60" height="40" as="alternateBounds" />
          </mxGeometry>
        </mxCell>
        <mxCell id="_cORZaKfMAQBqJn0a-Gh-95" value="" style="shape=tableRow;horizontal=0;startSize=0;swimlaneHead=0;swimlaneBody=0;strokeColor=inherit;top=0;left=0;bottom=0;right=0;collapsible=0;dropTarget=0;fillColor=none;points=[[0,0.5],[1,0.5]];portConstraint=eastwest;" vertex="1" parent="_cORZaKfMAQBqJn0a-Gh-90">
          <mxGeometry y="40" width="180" height="40" as="geometry" />
        </mxCell>
        <mxCell id="_cORZaKfMAQBqJn0a-Gh-96" value="" style="shape=partialRectangle;html=1;whiteSpace=wrap;connectable=0;strokeColor=inherit;overflow=hidden;fillColor=none;top=0;left=0;bottom=0;right=0;pointerEvents=1;fontSize=20;" vertex="1" parent="_cORZaKfMAQBqJn0a-Gh-95">
          <mxGeometry width="60" height="40" as="geometry">
            <mxRectangle width="60" height="40" as="alternateBounds" />
          </mxGeometry>
        </mxCell>
        <mxCell id="_cORZaKfMAQBqJn0a-Gh-97" value="&lt;font style=&quot;font-size: 20px;&quot;&gt;5&lt;/font&gt;" style="shape=partialRectangle;html=1;whiteSpace=wrap;connectable=0;strokeColor=inherit;overflow=hidden;fillColor=none;top=0;left=0;bottom=0;right=0;pointerEvents=1;fontSize=20;" vertex="1" parent="_cORZaKfMAQBqJn0a-Gh-95">
          <mxGeometry x="60" width="60" height="40" as="geometry">
            <mxRectangle width="60" height="40" as="alternateBounds" />
          </mxGeometry>
        </mxCell>
        <mxCell id="_cORZaKfMAQBqJn0a-Gh-98" value="" style="shape=partialRectangle;html=1;whiteSpace=wrap;connectable=0;strokeColor=inherit;overflow=hidden;fillColor=none;top=0;left=0;bottom=0;right=0;pointerEvents=1;fontSize=20;" vertex="1" parent="_cORZaKfMAQBqJn0a-Gh-95">
          <mxGeometry x="120" width="60" height="40" as="geometry">
            <mxRectangle width="60" height="40" as="alternateBounds" />
          </mxGeometry>
        </mxCell>
        <mxCell id="_cORZaKfMAQBqJn0a-Gh-99" value="" style="shape=tableRow;horizontal=0;startSize=0;swimlaneHead=0;swimlaneBody=0;strokeColor=inherit;top=0;left=0;bottom=0;right=0;collapsible=0;dropTarget=0;fillColor=none;points=[[0,0.5],[1,0.5]];portConstraint=eastwest;" vertex="1" parent="_cORZaKfMAQBqJn0a-Gh-90">
          <mxGeometry y="80" width="180" height="40" as="geometry" />
        </mxCell>
        <mxCell id="_cORZaKfMAQBqJn0a-Gh-100" value="" style="shape=partialRectangle;html=1;whiteSpace=wrap;connectable=0;strokeColor=inherit;overflow=hidden;fillColor=none;top=0;left=0;bottom=0;right=0;pointerEvents=1;fontSize=20;" vertex="1" parent="_cORZaKfMAQBqJn0a-Gh-99">
          <mxGeometry width="60" height="40" as="geometry">
            <mxRectangle width="60" height="40" as="alternateBounds" />
          </mxGeometry>
        </mxCell>
        <mxCell id="_cORZaKfMAQBqJn0a-Gh-101" value="24" style="shape=partialRectangle;html=1;whiteSpace=wrap;connectable=0;strokeColor=inherit;overflow=hidden;fillColor=none;top=0;left=0;bottom=0;right=0;pointerEvents=1;fontSize=20;" vertex="1" parent="_cORZaKfMAQBqJn0a-Gh-99">
          <mxGeometry x="60" width="60" height="40" as="geometry">
            <mxRectangle width="60" height="40" as="alternateBounds" />
          </mxGeometry>
        </mxCell>
        <mxCell id="_cORZaKfMAQBqJn0a-Gh-102" value="" style="shape=partialRectangle;html=1;whiteSpace=wrap;connectable=0;strokeColor=inherit;overflow=hidden;fillColor=none;top=0;left=0;bottom=0;right=0;pointerEvents=1;fontSize=20;" vertex="1" parent="_cORZaKfMAQBqJn0a-Gh-99">
          <mxGeometry x="120" width="60" height="40" as="geometry">
            <mxRectangle width="60" height="40" as="alternateBounds" />
          </mxGeometry>
        </mxCell>
        <mxCell id="_cORZaKfMAQBqJn0a-Gh-177" style="edgeStyle=orthogonalEdgeStyle;rounded=0;orthogonalLoop=1;jettySize=auto;html=1;" edge="1" parent="1" source="_cORZaKfMAQBqJn0a-Gh-103" target="_cORZaKfMAQBqJn0a-Gh-151">
          <mxGeometry relative="1" as="geometry">
            <mxPoint x="1170" y="580" as="targetPoint" />
            <Array as="points">
              <mxPoint x="1160" y="580" />
            </Array>
          </mxGeometry>
        </mxCell>
        <mxCell id="_cORZaKfMAQBqJn0a-Gh-103" value="" style="shape=table;startSize=0;container=1;collapsible=0;childLayout=tableLayout;align=center;fontStyle=1;fontSize=18;" vertex="1" parent="1">
          <mxGeometry x="840" y="520" width="180" height="120" as="geometry" />
        </mxCell>
        <mxCell id="_cORZaKfMAQBqJn0a-Gh-104" value="" style="shape=tableRow;horizontal=0;startSize=0;swimlaneHead=0;swimlaneBody=0;strokeColor=inherit;top=0;left=0;bottom=0;right=0;collapsible=0;dropTarget=0;fillColor=none;points=[[0,0.5],[1,0.5]];portConstraint=eastwest;" vertex="1" parent="_cORZaKfMAQBqJn0a-Gh-103">
          <mxGeometry width="180" height="40" as="geometry" />
        </mxCell>
        <mxCell id="_cORZaKfMAQBqJn0a-Gh-105" value="" style="shape=partialRectangle;html=1;whiteSpace=wrap;connectable=0;strokeColor=inherit;overflow=hidden;fillColor=none;top=0;left=0;bottom=0;right=0;pointerEvents=1;fontSize=20;" vertex="1" parent="_cORZaKfMAQBqJn0a-Gh-104">
          <mxGeometry width="60" height="40" as="geometry">
            <mxRectangle width="60" height="40" as="alternateBounds" />
          </mxGeometry>
        </mxCell>
        <mxCell id="_cORZaKfMAQBqJn0a-Gh-106" value="" style="shape=partialRectangle;html=1;whiteSpace=wrap;connectable=0;strokeColor=inherit;overflow=hidden;fillColor=none;top=0;left=0;bottom=0;right=0;pointerEvents=1;fontSize=20;" vertex="1" parent="_cORZaKfMAQBqJn0a-Gh-104">
          <mxGeometry x="60" width="60" height="40" as="geometry">
            <mxRectangle width="60" height="40" as="alternateBounds" />
          </mxGeometry>
        </mxCell>
        <mxCell id="_cORZaKfMAQBqJn0a-Gh-107" value="" style="shape=partialRectangle;html=1;whiteSpace=wrap;connectable=0;strokeColor=inherit;overflow=hidden;fillColor=none;top=0;left=0;bottom=0;right=0;pointerEvents=1;fontSize=20;" vertex="1" parent="_cORZaKfMAQBqJn0a-Gh-104">
          <mxGeometry x="120" width="60" height="40" as="geometry">
            <mxRectangle width="60" height="40" as="alternateBounds" />
          </mxGeometry>
        </mxCell>
        <mxCell id="_cORZaKfMAQBqJn0a-Gh-108" value="" style="shape=tableRow;horizontal=0;startSize=0;swimlaneHead=0;swimlaneBody=0;strokeColor=inherit;top=0;left=0;bottom=0;right=0;collapsible=0;dropTarget=0;fillColor=none;points=[[0,0.5],[1,0.5]];portConstraint=eastwest;" vertex="1" parent="_cORZaKfMAQBqJn0a-Gh-103">
          <mxGeometry y="40" width="180" height="40" as="geometry" />
        </mxCell>
        <mxCell id="_cORZaKfMAQBqJn0a-Gh-109" value="" style="shape=partialRectangle;html=1;whiteSpace=wrap;connectable=0;strokeColor=inherit;overflow=hidden;fillColor=none;top=0;left=0;bottom=0;right=0;pointerEvents=1;fontSize=20;" vertex="1" parent="_cORZaKfMAQBqJn0a-Gh-108">
          <mxGeometry width="60" height="40" as="geometry">
            <mxRectangle width="60" height="40" as="alternateBounds" />
          </mxGeometry>
        </mxCell>
        <mxCell id="_cORZaKfMAQBqJn0a-Gh-110" value="&lt;font style=&quot;font-size: 20px;&quot;&gt;8&lt;/font&gt;" style="shape=partialRectangle;html=1;whiteSpace=wrap;connectable=0;strokeColor=inherit;overflow=hidden;fillColor=none;top=0;left=0;bottom=0;right=0;pointerEvents=1;fontSize=20;" vertex="1" parent="_cORZaKfMAQBqJn0a-Gh-108">
          <mxGeometry x="60" width="60" height="40" as="geometry">
            <mxRectangle width="60" height="40" as="alternateBounds" />
          </mxGeometry>
        </mxCell>
        <mxCell id="_cORZaKfMAQBqJn0a-Gh-111" value="" style="shape=partialRectangle;html=1;whiteSpace=wrap;connectable=0;strokeColor=inherit;overflow=hidden;fillColor=none;top=0;left=0;bottom=0;right=0;pointerEvents=1;fontSize=20;" vertex="1" parent="_cORZaKfMAQBqJn0a-Gh-108">
          <mxGeometry x="120" width="60" height="40" as="geometry">
            <mxRectangle width="60" height="40" as="alternateBounds" />
          </mxGeometry>
        </mxCell>
        <mxCell id="_cORZaKfMAQBqJn0a-Gh-112" value="" style="shape=tableRow;horizontal=0;startSize=0;swimlaneHead=0;swimlaneBody=0;strokeColor=inherit;top=0;left=0;bottom=0;right=0;collapsible=0;dropTarget=0;fillColor=none;points=[[0,0.5],[1,0.5]];portConstraint=eastwest;" vertex="1" parent="_cORZaKfMAQBqJn0a-Gh-103">
          <mxGeometry y="80" width="180" height="40" as="geometry" />
        </mxCell>
        <mxCell id="_cORZaKfMAQBqJn0a-Gh-113" value="" style="shape=partialRectangle;html=1;whiteSpace=wrap;connectable=0;strokeColor=inherit;overflow=hidden;fillColor=none;top=0;left=0;bottom=0;right=0;pointerEvents=1;fontSize=20;" vertex="1" parent="_cORZaKfMAQBqJn0a-Gh-112">
          <mxGeometry width="60" height="40" as="geometry">
            <mxRectangle width="60" height="40" as="alternateBounds" />
          </mxGeometry>
        </mxCell>
        <mxCell id="_cORZaKfMAQBqJn0a-Gh-114" value="40" style="shape=partialRectangle;html=1;whiteSpace=wrap;connectable=0;strokeColor=inherit;overflow=hidden;fillColor=none;top=0;left=0;bottom=0;right=0;pointerEvents=1;fontSize=20;" vertex="1" parent="_cORZaKfMAQBqJn0a-Gh-112">
          <mxGeometry x="60" width="60" height="40" as="geometry">
            <mxRectangle width="60" height="40" as="alternateBounds" />
          </mxGeometry>
        </mxCell>
        <mxCell id="_cORZaKfMAQBqJn0a-Gh-115" value="" style="shape=partialRectangle;html=1;whiteSpace=wrap;connectable=0;strokeColor=inherit;overflow=hidden;fillColor=none;top=0;left=0;bottom=0;right=0;pointerEvents=1;fontSize=20;" vertex="1" parent="_cORZaKfMAQBqJn0a-Gh-112">
          <mxGeometry x="120" width="60" height="40" as="geometry">
            <mxRectangle width="60" height="40" as="alternateBounds" />
          </mxGeometry>
        </mxCell>
        <mxCell id="_cORZaKfMAQBqJn0a-Gh-129" value="" style="shape=table;startSize=0;container=1;collapsible=0;childLayout=tableLayout;align=center;fontStyle=1;fontSize=18;" vertex="1" parent="1">
          <mxGeometry x="840" y="360" width="180" height="120" as="geometry" />
        </mxCell>
        <mxCell id="_cORZaKfMAQBqJn0a-Gh-130" value="" style="shape=tableRow;horizontal=0;startSize=0;swimlaneHead=0;swimlaneBody=0;strokeColor=inherit;top=0;left=0;bottom=0;right=0;collapsible=0;dropTarget=0;fillColor=none;points=[[0,0.5],[1,0.5]];portConstraint=eastwest;" vertex="1" parent="_cORZaKfMAQBqJn0a-Gh-129">
          <mxGeometry width="180" height="40" as="geometry" />
        </mxCell>
        <mxCell id="_cORZaKfMAQBqJn0a-Gh-131" value="" style="shape=partialRectangle;html=1;whiteSpace=wrap;connectable=0;strokeColor=inherit;overflow=hidden;fillColor=none;top=0;left=0;bottom=0;right=0;pointerEvents=1;fontSize=20;" vertex="1" parent="_cORZaKfMAQBqJn0a-Gh-130">
          <mxGeometry width="60" height="40" as="geometry">
            <mxRectangle width="60" height="40" as="alternateBounds" />
          </mxGeometry>
        </mxCell>
        <mxCell id="_cORZaKfMAQBqJn0a-Gh-132" value="" style="shape=partialRectangle;html=1;whiteSpace=wrap;connectable=0;strokeColor=inherit;overflow=hidden;fillColor=none;top=0;left=0;bottom=0;right=0;pointerEvents=1;fontSize=20;" vertex="1" parent="_cORZaKfMAQBqJn0a-Gh-130">
          <mxGeometry x="60" width="60" height="40" as="geometry">
            <mxRectangle width="60" height="40" as="alternateBounds" />
          </mxGeometry>
        </mxCell>
        <mxCell id="_cORZaKfMAQBqJn0a-Gh-133" value="" style="shape=partialRectangle;html=1;whiteSpace=wrap;connectable=0;strokeColor=inherit;overflow=hidden;fillColor=none;top=0;left=0;bottom=0;right=0;pointerEvents=1;fontSize=20;" vertex="1" parent="_cORZaKfMAQBqJn0a-Gh-130">
          <mxGeometry x="120" width="60" height="40" as="geometry">
            <mxRectangle width="60" height="40" as="alternateBounds" />
          </mxGeometry>
        </mxCell>
        <mxCell id="_cORZaKfMAQBqJn0a-Gh-134" value="" style="shape=tableRow;horizontal=0;startSize=0;swimlaneHead=0;swimlaneBody=0;strokeColor=inherit;top=0;left=0;bottom=0;right=0;collapsible=0;dropTarget=0;fillColor=none;points=[[0,0.5],[1,0.5]];portConstraint=eastwest;" vertex="1" parent="_cORZaKfMAQBqJn0a-Gh-129">
          <mxGeometry y="40" width="180" height="40" as="geometry" />
        </mxCell>
        <mxCell id="_cORZaKfMAQBqJn0a-Gh-135" value="" style="shape=partialRectangle;html=1;whiteSpace=wrap;connectable=0;strokeColor=inherit;overflow=hidden;fillColor=none;top=0;left=0;bottom=0;right=0;pointerEvents=1;fontSize=20;" vertex="1" parent="_cORZaKfMAQBqJn0a-Gh-134">
          <mxGeometry width="60" height="40" as="geometry">
            <mxRectangle width="60" height="40" as="alternateBounds" />
          </mxGeometry>
        </mxCell>
        <mxCell id="_cORZaKfMAQBqJn0a-Gh-136" value="&lt;font style=&quot;font-size: 20px;&quot;&gt;7&lt;/font&gt;" style="shape=partialRectangle;html=1;whiteSpace=wrap;connectable=0;strokeColor=inherit;overflow=hidden;fillColor=none;top=0;left=0;bottom=0;right=0;pointerEvents=1;fontSize=20;" vertex="1" parent="_cORZaKfMAQBqJn0a-Gh-134">
          <mxGeometry x="60" width="60" height="40" as="geometry">
            <mxRectangle width="60" height="40" as="alternateBounds" />
          </mxGeometry>
        </mxCell>
        <mxCell id="_cORZaKfMAQBqJn0a-Gh-137" value="" style="shape=partialRectangle;html=1;whiteSpace=wrap;connectable=0;strokeColor=inherit;overflow=hidden;fillColor=none;top=0;left=0;bottom=0;right=0;pointerEvents=1;fontSize=20;" vertex="1" parent="_cORZaKfMAQBqJn0a-Gh-134">
          <mxGeometry x="120" width="60" height="40" as="geometry">
            <mxRectangle width="60" height="40" as="alternateBounds" />
          </mxGeometry>
        </mxCell>
        <mxCell id="_cORZaKfMAQBqJn0a-Gh-138" value="" style="shape=tableRow;horizontal=0;startSize=0;swimlaneHead=0;swimlaneBody=0;strokeColor=inherit;top=0;left=0;bottom=0;right=0;collapsible=0;dropTarget=0;fillColor=none;points=[[0,0.5],[1,0.5]];portConstraint=eastwest;" vertex="1" parent="_cORZaKfMAQBqJn0a-Gh-129">
          <mxGeometry y="80" width="180" height="40" as="geometry" />
        </mxCell>
        <mxCell id="_cORZaKfMAQBqJn0a-Gh-139" value="" style="shape=partialRectangle;html=1;whiteSpace=wrap;connectable=0;strokeColor=inherit;overflow=hidden;fillColor=none;top=0;left=0;bottom=0;right=0;pointerEvents=1;fontSize=20;" vertex="1" parent="_cORZaKfMAQBqJn0a-Gh-138">
          <mxGeometry width="60" height="40" as="geometry">
            <mxRectangle width="60" height="40" as="alternateBounds" />
          </mxGeometry>
        </mxCell>
        <mxCell id="_cORZaKfMAQBqJn0a-Gh-140" value="35" style="shape=partialRectangle;html=1;whiteSpace=wrap;connectable=0;strokeColor=inherit;overflow=hidden;fillColor=none;top=0;left=0;bottom=0;right=0;pointerEvents=1;fontSize=20;" vertex="1" parent="_cORZaKfMAQBqJn0a-Gh-138">
          <mxGeometry x="60" width="60" height="40" as="geometry">
            <mxRectangle width="60" height="40" as="alternateBounds" />
          </mxGeometry>
        </mxCell>
        <mxCell id="_cORZaKfMAQBqJn0a-Gh-141" value="" style="shape=partialRectangle;html=1;whiteSpace=wrap;connectable=0;strokeColor=inherit;overflow=hidden;fillColor=none;top=0;left=0;bottom=0;right=0;pointerEvents=1;fontSize=20;" vertex="1" parent="_cORZaKfMAQBqJn0a-Gh-138">
          <mxGeometry x="120" width="60" height="40" as="geometry">
            <mxRectangle width="60" height="40" as="alternateBounds" />
          </mxGeometry>
        </mxCell>
        <mxCell id="_cORZaKfMAQBqJn0a-Gh-142" value="" style="shape=table;startSize=0;container=1;collapsible=0;childLayout=tableLayout;align=center;fontStyle=1;fontSize=18;" vertex="1" parent="1">
          <mxGeometry x="1130" y="360" width="180" height="120" as="geometry" />
        </mxCell>
        <mxCell id="_cORZaKfMAQBqJn0a-Gh-143" value="" style="shape=tableRow;horizontal=0;startSize=0;swimlaneHead=0;swimlaneBody=0;strokeColor=inherit;top=0;left=0;bottom=0;right=0;collapsible=0;dropTarget=0;fillColor=none;points=[[0,0.5],[1,0.5]];portConstraint=eastwest;" vertex="1" parent="_cORZaKfMAQBqJn0a-Gh-142">
          <mxGeometry width="180" height="40" as="geometry" />
        </mxCell>
        <mxCell id="_cORZaKfMAQBqJn0a-Gh-144" value="" style="shape=partialRectangle;html=1;whiteSpace=wrap;connectable=0;strokeColor=inherit;overflow=hidden;fillColor=none;top=0;left=0;bottom=0;right=0;pointerEvents=1;fontSize=18;" vertex="1" parent="_cORZaKfMAQBqJn0a-Gh-143">
          <mxGeometry width="60" height="40" as="geometry">
            <mxRectangle width="60" height="40" as="alternateBounds" />
          </mxGeometry>
        </mxCell>
        <mxCell id="_cORZaKfMAQBqJn0a-Gh-145" value="" style="shape=partialRectangle;html=1;whiteSpace=wrap;connectable=0;strokeColor=inherit;overflow=hidden;fillColor=none;top=0;left=0;bottom=0;right=0;pointerEvents=1;fontSize=18;" vertex="1" parent="_cORZaKfMAQBqJn0a-Gh-143">
          <mxGeometry x="60" width="60" height="40" as="geometry">
            <mxRectangle width="60" height="40" as="alternateBounds" />
          </mxGeometry>
        </mxCell>
        <mxCell id="_cORZaKfMAQBqJn0a-Gh-146" value="" style="shape=partialRectangle;html=1;whiteSpace=wrap;connectable=0;strokeColor=inherit;overflow=hidden;fillColor=none;top=0;left=0;bottom=0;right=0;pointerEvents=1;fontSize=18;" vertex="1" parent="_cORZaKfMAQBqJn0a-Gh-143">
          <mxGeometry x="120" width="60" height="40" as="geometry">
            <mxRectangle width="60" height="40" as="alternateBounds" />
          </mxGeometry>
        </mxCell>
        <mxCell id="_cORZaKfMAQBqJn0a-Gh-147" value="" style="shape=tableRow;horizontal=0;startSize=0;swimlaneHead=0;swimlaneBody=0;strokeColor=inherit;top=0;left=0;bottom=0;right=0;collapsible=0;dropTarget=0;fillColor=none;points=[[0,0.5],[1,0.5]];portConstraint=eastwest;" vertex="1" parent="_cORZaKfMAQBqJn0a-Gh-142">
          <mxGeometry y="40" width="180" height="40" as="geometry" />
        </mxCell>
        <mxCell id="_cORZaKfMAQBqJn0a-Gh-148" value="" style="shape=partialRectangle;html=1;whiteSpace=wrap;connectable=0;strokeColor=inherit;overflow=hidden;fillColor=none;top=0;left=0;bottom=0;right=0;pointerEvents=1;fontSize=18;" vertex="1" parent="_cORZaKfMAQBqJn0a-Gh-147">
          <mxGeometry width="60" height="40" as="geometry">
            <mxRectangle width="60" height="40" as="alternateBounds" />
          </mxGeometry>
        </mxCell>
        <mxCell id="_cORZaKfMAQBqJn0a-Gh-149" value="&lt;font style=&quot;font-size: 18px;&quot;&gt;10&lt;/font&gt;" style="shape=partialRectangle;html=1;whiteSpace=wrap;connectable=0;strokeColor=inherit;overflow=hidden;fillColor=none;top=0;left=0;bottom=0;right=0;pointerEvents=1;fontSize=18;" vertex="1" parent="_cORZaKfMAQBqJn0a-Gh-147">
          <mxGeometry x="60" width="60" height="40" as="geometry">
            <mxRectangle width="60" height="40" as="alternateBounds" />
          </mxGeometry>
        </mxCell>
        <mxCell id="_cORZaKfMAQBqJn0a-Gh-150" value="" style="shape=partialRectangle;html=1;whiteSpace=wrap;connectable=0;strokeColor=inherit;overflow=hidden;fillColor=none;top=0;left=0;bottom=0;right=0;pointerEvents=1;fontSize=18;" vertex="1" parent="_cORZaKfMAQBqJn0a-Gh-147">
          <mxGeometry x="120" width="60" height="40" as="geometry">
            <mxRectangle width="60" height="40" as="alternateBounds" />
          </mxGeometry>
        </mxCell>
        <mxCell id="_cORZaKfMAQBqJn0a-Gh-151" value="" style="shape=tableRow;horizontal=0;startSize=0;swimlaneHead=0;swimlaneBody=0;strokeColor=inherit;top=0;left=0;bottom=0;right=0;collapsible=0;dropTarget=0;fillColor=none;points=[[0,0.5],[1,0.5]];portConstraint=eastwest;" vertex="1" parent="_cORZaKfMAQBqJn0a-Gh-142">
          <mxGeometry y="80" width="180" height="40" as="geometry" />
        </mxCell>
        <mxCell id="_cORZaKfMAQBqJn0a-Gh-152" value="" style="shape=partialRectangle;html=1;whiteSpace=wrap;connectable=0;strokeColor=inherit;overflow=hidden;fillColor=none;top=0;left=0;bottom=0;right=0;pointerEvents=1;fontSize=18;" vertex="1" parent="_cORZaKfMAQBqJn0a-Gh-151">
          <mxGeometry width="60" height="40" as="geometry">
            <mxRectangle width="60" height="40" as="alternateBounds" />
          </mxGeometry>
        </mxCell>
        <mxCell id="_cORZaKfMAQBqJn0a-Gh-153" value="4" style="shape=partialRectangle;html=1;whiteSpace=wrap;connectable=0;strokeColor=inherit;overflow=hidden;fillColor=none;top=0;left=0;bottom=0;right=0;pointerEvents=1;fontSize=18;" vertex="1" parent="_cORZaKfMAQBqJn0a-Gh-151">
          <mxGeometry x="60" width="60" height="40" as="geometry">
            <mxRectangle width="60" height="40" as="alternateBounds" />
          </mxGeometry>
        </mxCell>
        <mxCell id="_cORZaKfMAQBqJn0a-Gh-154" value="" style="shape=partialRectangle;html=1;whiteSpace=wrap;connectable=0;strokeColor=inherit;overflow=hidden;fillColor=none;top=0;left=0;bottom=0;right=0;pointerEvents=1;fontSize=18;" vertex="1" parent="_cORZaKfMAQBqJn0a-Gh-151">
          <mxGeometry x="120" width="60" height="40" as="geometry">
            <mxRectangle width="60" height="40" as="alternateBounds" />
          </mxGeometry>
        </mxCell>
        <mxCell id="_cORZaKfMAQBqJn0a-Gh-155" value="" style="shape=table;startSize=0;container=1;collapsible=0;childLayout=tableLayout;align=center;fontStyle=1;fontSize=16;" vertex="1" parent="1">
          <mxGeometry x="1410" y="360" width="180" height="120" as="geometry" />
        </mxCell>
        <mxCell id="_cORZaKfMAQBqJn0a-Gh-156" value="" style="shape=tableRow;horizontal=0;startSize=0;swimlaneHead=0;swimlaneBody=0;strokeColor=inherit;top=0;left=0;bottom=0;right=0;collapsible=0;dropTarget=0;fillColor=none;points=[[0,0.5],[1,0.5]];portConstraint=eastwest;" vertex="1" parent="_cORZaKfMAQBqJn0a-Gh-155">
          <mxGeometry width="180" height="40" as="geometry" />
        </mxCell>
        <mxCell id="_cORZaKfMAQBqJn0a-Gh-157" value="" style="shape=partialRectangle;html=1;whiteSpace=wrap;connectable=0;strokeColor=inherit;overflow=hidden;fillColor=none;top=0;left=0;bottom=0;right=0;pointerEvents=1;fontSize=20;" vertex="1" parent="_cORZaKfMAQBqJn0a-Gh-156">
          <mxGeometry width="60" height="40" as="geometry">
            <mxRectangle width="60" height="40" as="alternateBounds" />
          </mxGeometry>
        </mxCell>
        <mxCell id="_cORZaKfMAQBqJn0a-Gh-158" value="" style="shape=partialRectangle;html=1;whiteSpace=wrap;connectable=0;strokeColor=inherit;overflow=hidden;fillColor=none;top=0;left=0;bottom=0;right=0;pointerEvents=1;fontSize=20;" vertex="1" parent="_cORZaKfMAQBqJn0a-Gh-156">
          <mxGeometry x="60" width="60" height="40" as="geometry">
            <mxRectangle width="60" height="40" as="alternateBounds" />
          </mxGeometry>
        </mxCell>
        <mxCell id="_cORZaKfMAQBqJn0a-Gh-159" value="" style="shape=partialRectangle;html=1;whiteSpace=wrap;connectable=0;strokeColor=inherit;overflow=hidden;fillColor=none;top=0;left=0;bottom=0;right=0;pointerEvents=1;fontSize=20;" vertex="1" parent="_cORZaKfMAQBqJn0a-Gh-156">
          <mxGeometry x="120" width="60" height="40" as="geometry">
            <mxRectangle width="60" height="40" as="alternateBounds" />
          </mxGeometry>
        </mxCell>
        <mxCell id="_cORZaKfMAQBqJn0a-Gh-160" value="" style="shape=tableRow;horizontal=0;startSize=0;swimlaneHead=0;swimlaneBody=0;strokeColor=inherit;top=0;left=0;bottom=0;right=0;collapsible=0;dropTarget=0;fillColor=none;points=[[0,0.5],[1,0.5]];portConstraint=eastwest;" vertex="1" parent="_cORZaKfMAQBqJn0a-Gh-155">
          <mxGeometry y="40" width="180" height="40" as="geometry" />
        </mxCell>
        <mxCell id="_cORZaKfMAQBqJn0a-Gh-161" value="" style="shape=partialRectangle;html=1;whiteSpace=wrap;connectable=0;strokeColor=inherit;overflow=hidden;fillColor=none;top=0;left=0;bottom=0;right=0;pointerEvents=1;fontSize=20;" vertex="1" parent="_cORZaKfMAQBqJn0a-Gh-160">
          <mxGeometry width="60" height="40" as="geometry">
            <mxRectangle width="60" height="40" as="alternateBounds" />
          </mxGeometry>
        </mxCell>
        <mxCell id="_cORZaKfMAQBqJn0a-Gh-162" value="&lt;font style=&quot;font-size: 20px;&quot;&gt;11&lt;/font&gt;" style="shape=partialRectangle;html=1;whiteSpace=wrap;connectable=0;strokeColor=inherit;overflow=hidden;fillColor=none;top=0;left=0;bottom=0;right=0;pointerEvents=1;fontSize=20;" vertex="1" parent="_cORZaKfMAQBqJn0a-Gh-160">
          <mxGeometry x="60" width="60" height="40" as="geometry">
            <mxRectangle width="60" height="40" as="alternateBounds" />
          </mxGeometry>
        </mxCell>
        <mxCell id="_cORZaKfMAQBqJn0a-Gh-163" value="" style="shape=partialRectangle;html=1;whiteSpace=wrap;connectable=0;strokeColor=inherit;overflow=hidden;fillColor=none;top=0;left=0;bottom=0;right=0;pointerEvents=1;fontSize=20;" vertex="1" parent="_cORZaKfMAQBqJn0a-Gh-160">
          <mxGeometry x="120" width="60" height="40" as="geometry">
            <mxRectangle width="60" height="40" as="alternateBounds" />
          </mxGeometry>
        </mxCell>
        <mxCell id="_cORZaKfMAQBqJn0a-Gh-164" value="" style="shape=tableRow;horizontal=0;startSize=0;swimlaneHead=0;swimlaneBody=0;strokeColor=inherit;top=0;left=0;bottom=0;right=0;collapsible=0;dropTarget=0;fillColor=none;points=[[0,0.5],[1,0.5]];portConstraint=eastwest;" vertex="1" parent="_cORZaKfMAQBqJn0a-Gh-155">
          <mxGeometry y="80" width="180" height="40" as="geometry" />
        </mxCell>
        <mxCell id="_cORZaKfMAQBqJn0a-Gh-165" value="" style="shape=partialRectangle;html=1;whiteSpace=wrap;connectable=0;strokeColor=inherit;overflow=hidden;fillColor=none;top=0;left=0;bottom=0;right=0;pointerEvents=1;fontSize=20;" vertex="1" parent="_cORZaKfMAQBqJn0a-Gh-164">
          <mxGeometry width="60" height="40" as="geometry">
            <mxRectangle width="60" height="40" as="alternateBounds" />
          </mxGeometry>
        </mxCell>
        <mxCell id="_cORZaKfMAQBqJn0a-Gh-166" value="6" style="shape=partialRectangle;html=1;whiteSpace=wrap;connectable=0;strokeColor=inherit;overflow=hidden;fillColor=none;top=0;left=0;bottom=0;right=0;pointerEvents=1;fontSize=20;" vertex="1" parent="_cORZaKfMAQBqJn0a-Gh-164">
          <mxGeometry x="60" width="60" height="40" as="geometry">
            <mxRectangle width="60" height="40" as="alternateBounds" />
          </mxGeometry>
        </mxCell>
        <mxCell id="_cORZaKfMAQBqJn0a-Gh-167" value="" style="shape=partialRectangle;html=1;whiteSpace=wrap;connectable=0;strokeColor=inherit;overflow=hidden;fillColor=none;top=0;left=0;bottom=0;right=0;pointerEvents=1;fontSize=20;" vertex="1" parent="_cORZaKfMAQBqJn0a-Gh-164">
          <mxGeometry x="120" width="60" height="40" as="geometry">
            <mxRectangle width="60" height="40" as="alternateBounds" />
          </mxGeometry>
        </mxCell>
        <mxCell id="_cORZaKfMAQBqJn0a-Gh-170" style="edgeStyle=orthogonalEdgeStyle;rounded=0;orthogonalLoop=1;jettySize=auto;html=1;entryX=0;entryY=0.5;entryDx=0;entryDy=0;" edge="1" parent="1" source="_cORZaKfMAQBqJn0a-Gh-13" target="_cORZaKfMAQBqJn0a-Gh-43">
          <mxGeometry relative="1" as="geometry" />
        </mxCell>
        <mxCell id="_cORZaKfMAQBqJn0a-Gh-171" style="edgeStyle=orthogonalEdgeStyle;rounded=0;orthogonalLoop=1;jettySize=auto;html=1;entryX=0;entryY=0.5;entryDx=0;entryDy=0;" edge="1" parent="1" source="_cORZaKfMAQBqJn0a-Gh-21" target="_cORZaKfMAQBqJn0a-Gh-69">
          <mxGeometry relative="1" as="geometry" />
        </mxCell>
        <mxCell id="_cORZaKfMAQBqJn0a-Gh-172" style="edgeStyle=orthogonalEdgeStyle;rounded=0;orthogonalLoop=1;jettySize=auto;html=1;entryX=0;entryY=0.5;entryDx=0;entryDy=0;" edge="1" parent="1" source="_cORZaKfMAQBqJn0a-Gh-30" target="_cORZaKfMAQBqJn0a-Gh-82">
          <mxGeometry relative="1" as="geometry" />
        </mxCell>
        <mxCell id="_cORZaKfMAQBqJn0a-Gh-173" style="edgeStyle=orthogonalEdgeStyle;rounded=0;orthogonalLoop=1;jettySize=auto;html=1;entryX=0;entryY=0.5;entryDx=0;entryDy=0;" edge="1" parent="1" source="_cORZaKfMAQBqJn0a-Gh-34" target="_cORZaKfMAQBqJn0a-Gh-95">
          <mxGeometry relative="1" as="geometry" />
        </mxCell>
        <mxCell id="_cORZaKfMAQBqJn0a-Gh-174" style="edgeStyle=orthogonalEdgeStyle;rounded=0;orthogonalLoop=1;jettySize=auto;html=1;entryX=0;entryY=0.5;entryDx=0;entryDy=0;" edge="1" parent="1" source="_cORZaKfMAQBqJn0a-Gh-82" target="_cORZaKfMAQBqJn0a-Gh-108">
          <mxGeometry relative="1" as="geometry" />
        </mxCell>
        <mxCell id="_cORZaKfMAQBqJn0a-Gh-175" style="edgeStyle=orthogonalEdgeStyle;rounded=0;orthogonalLoop=1;jettySize=auto;html=1;" edge="1" parent="1" source="_cORZaKfMAQBqJn0a-Gh-95" target="_cORZaKfMAQBqJn0a-Gh-151">
          <mxGeometry relative="1" as="geometry">
            <Array as="points">
              <mxPoint x="1210" y="740" />
            </Array>
          </mxGeometry>
        </mxCell>
        <mxCell id="_cORZaKfMAQBqJn0a-Gh-176" style="edgeStyle=orthogonalEdgeStyle;rounded=0;orthogonalLoop=1;jettySize=auto;html=1;entryX=0;entryY=0.5;entryDx=0;entryDy=0;" edge="1" parent="1" source="_cORZaKfMAQBqJn0a-Gh-134" target="_cORZaKfMAQBqJn0a-Gh-147">
          <mxGeometry relative="1" as="geometry" />
        </mxCell>
        <mxCell id="_cORZaKfMAQBqJn0a-Gh-178" style="edgeStyle=orthogonalEdgeStyle;rounded=0;orthogonalLoop=1;jettySize=auto;html=1;entryX=0.575;entryY=-0.027;entryDx=0;entryDy=0;entryPerimeter=0;" edge="1" parent="1" source="_cORZaKfMAQBqJn0a-Gh-43" target="_cORZaKfMAQBqJn0a-Gh-156">
          <mxGeometry relative="1" as="geometry">
            <mxPoint x="1540" y="110" as="targetPoint" />
            <Array as="points">
              <mxPoint x="1510" y="110" />
              <mxPoint x="1510" y="359" />
            </Array>
          </mxGeometry>
        </mxCell>
        <mxCell id="_cORZaKfMAQBqJn0a-Gh-180" value="" style="shape=table;startSize=0;container=1;collapsible=0;childLayout=tableLayout;align=center;fontStyle=1;fontSize=27;" vertex="1" parent="1">
          <mxGeometry x="1270" y="660" width="540" height="190" as="geometry" />
        </mxCell>
        <mxCell id="_cORZaKfMAQBqJn0a-Gh-181" value="" style="shape=tableRow;horizontal=0;startSize=0;swimlaneHead=0;swimlaneBody=0;strokeColor=inherit;top=0;left=0;bottom=0;right=0;collapsible=0;dropTarget=0;fillColor=none;points=[[0,0.5],[1,0.5]];portConstraint=eastwest;" vertex="1" parent="_cORZaKfMAQBqJn0a-Gh-180">
          <mxGeometry width="540" height="63" as="geometry" />
        </mxCell>
        <mxCell id="_cORZaKfMAQBqJn0a-Gh-182" value="INICIO&lt;div style=&quot;font-size: 21px;&quot;&gt;TEMPRANO&lt;/div&gt;" style="shape=partialRectangle;html=1;whiteSpace=wrap;connectable=0;strokeColor=inherit;overflow=hidden;fillColor=none;top=0;left=0;bottom=0;right=0;pointerEvents=1;fontSize=21;" vertex="1" parent="_cORZaKfMAQBqJn0a-Gh-181">
          <mxGeometry width="180" height="63" as="geometry">
            <mxRectangle width="180" height="63" as="alternateBounds" />
          </mxGeometry>
        </mxCell>
        <mxCell id="_cORZaKfMAQBqJn0a-Gh-183" value="" style="shape=partialRectangle;html=1;whiteSpace=wrap;connectable=0;strokeColor=inherit;overflow=hidden;fillColor=none;top=0;left=0;bottom=0;right=0;pointerEvents=1;" vertex="1" parent="_cORZaKfMAQBqJn0a-Gh-181">
          <mxGeometry x="180" width="180" height="63" as="geometry">
            <mxRectangle width="180" height="63" as="alternateBounds" />
          </mxGeometry>
        </mxCell>
        <mxCell id="_cORZaKfMAQBqJn0a-Gh-184" value="FINALIZACION&lt;div style=&quot;font-size: 21px;&quot;&gt;TEMPRANA&lt;/div&gt;" style="shape=partialRectangle;html=1;whiteSpace=wrap;connectable=0;strokeColor=inherit;overflow=hidden;fillColor=none;top=0;left=0;bottom=0;right=0;pointerEvents=1;fontSize=21;" vertex="1" parent="_cORZaKfMAQBqJn0a-Gh-181">
          <mxGeometry x="360" width="180" height="63" as="geometry">
            <mxRectangle width="180" height="63" as="alternateBounds" />
          </mxGeometry>
        </mxCell>
        <mxCell id="_cORZaKfMAQBqJn0a-Gh-185" value="" style="shape=tableRow;horizontal=0;startSize=0;swimlaneHead=0;swimlaneBody=0;strokeColor=inherit;top=0;left=0;bottom=0;right=0;collapsible=0;dropTarget=0;fillColor=none;points=[[0,0.5],[1,0.5]];portConstraint=eastwest;" vertex="1" parent="_cORZaKfMAQBqJn0a-Gh-180">
          <mxGeometry y="63" width="540" height="64" as="geometry" />
        </mxCell>
        <mxCell id="_cORZaKfMAQBqJn0a-Gh-186" value="" style="shape=partialRectangle;html=1;whiteSpace=wrap;connectable=0;strokeColor=inherit;overflow=hidden;fillColor=none;top=0;left=0;bottom=0;right=0;pointerEvents=1;" vertex="1" parent="_cORZaKfMAQBqJn0a-Gh-185">
          <mxGeometry width="180" height="64" as="geometry">
            <mxRectangle width="180" height="64" as="alternateBounds" />
          </mxGeometry>
        </mxCell>
        <mxCell id="_cORZaKfMAQBqJn0a-Gh-187" value="&lt;span style=&quot;font-size: 20px;&quot;&gt;ACTIVIDAD&lt;/span&gt;" style="shape=partialRectangle;html=1;whiteSpace=wrap;connectable=0;strokeColor=inherit;overflow=hidden;fillColor=none;top=0;left=0;bottom=0;right=0;pointerEvents=1;" vertex="1" parent="_cORZaKfMAQBqJn0a-Gh-185">
          <mxGeometry x="180" width="180" height="64" as="geometry">
            <mxRectangle width="180" height="64" as="alternateBounds" />
          </mxGeometry>
        </mxCell>
        <mxCell id="_cORZaKfMAQBqJn0a-Gh-188" value="" style="shape=partialRectangle;html=1;whiteSpace=wrap;connectable=0;strokeColor=inherit;overflow=hidden;fillColor=none;top=0;left=0;bottom=0;right=0;pointerEvents=1;" vertex="1" parent="_cORZaKfMAQBqJn0a-Gh-185">
          <mxGeometry x="360" width="180" height="64" as="geometry">
            <mxRectangle width="180" height="64" as="alternateBounds" />
          </mxGeometry>
        </mxCell>
        <mxCell id="_cORZaKfMAQBqJn0a-Gh-189" value="" style="shape=tableRow;horizontal=0;startSize=0;swimlaneHead=0;swimlaneBody=0;strokeColor=inherit;top=0;left=0;bottom=0;right=0;collapsible=0;dropTarget=0;fillColor=none;points=[[0,0.5],[1,0.5]];portConstraint=eastwest;" vertex="1" parent="_cORZaKfMAQBqJn0a-Gh-180">
          <mxGeometry y="127" width="540" height="63" as="geometry" />
        </mxCell>
        <mxCell id="_cORZaKfMAQBqJn0a-Gh-190" value="INICIO&lt;div style=&quot;font-size: 21px;&quot;&gt;TARDIO&lt;/div&gt;" style="shape=partialRectangle;html=1;whiteSpace=wrap;connectable=0;strokeColor=inherit;overflow=hidden;fillColor=none;top=0;left=0;bottom=0;right=0;pointerEvents=1;fontSize=21;" vertex="1" parent="_cORZaKfMAQBqJn0a-Gh-189">
          <mxGeometry width="180" height="63" as="geometry">
            <mxRectangle width="180" height="63" as="alternateBounds" />
          </mxGeometry>
        </mxCell>
        <mxCell id="_cORZaKfMAQBqJn0a-Gh-191" value="DURACION" style="shape=partialRectangle;html=1;whiteSpace=wrap;connectable=0;strokeColor=inherit;overflow=hidden;fillColor=none;top=0;left=0;bottom=0;right=0;pointerEvents=1;fontSize=20;" vertex="1" parent="_cORZaKfMAQBqJn0a-Gh-189">
          <mxGeometry x="180" width="180" height="63" as="geometry">
            <mxRectangle width="180" height="63" as="alternateBounds" />
          </mxGeometry>
        </mxCell>
        <mxCell id="_cORZaKfMAQBqJn0a-Gh-192" value="FINALIZACION&lt;div style=&quot;font-size: 21px;&quot;&gt;TARDIA&lt;/div&gt;" style="shape=partialRectangle;html=1;whiteSpace=wrap;connectable=0;strokeColor=inherit;overflow=hidden;fillColor=none;top=0;left=0;bottom=0;right=0;pointerEvents=1;fontSize=21;" vertex="1" parent="_cORZaKfMAQBqJn0a-Gh-189">
          <mxGeometry x="360" width="180" height="63" as="geometry">
            <mxRectangle width="180" height="63" as="alternateBounds" />
          </mxGeometry>
        </mxCell>
        <mxCell id="_cORZaKfMAQBqJn0a-Gh-195" style="edgeStyle=orthogonalEdgeStyle;rounded=0;orthogonalLoop=1;jettySize=auto;html=1;entryX=0;entryY=0.5;entryDx=0;entryDy=0;" edge="1" parent="1" source="_cORZaKfMAQBqJn0a-Gh-69" target="_cORZaKfMAQBqJn0a-Gh-134">
          <mxGeometry relative="1" as="geometry" />
        </mxCell>
      </root>
    </mxGraphModel>
  </diagram>
</mxfile>
